# xmcd
#
# Track frame offsets:
#	150
#	13442
#	24625
#	35564
#	48422
#	65832
#	73665
#	88150
#	98865
#	113189
#	129193
#	144821
#	157998
#	174553
#	192774
#	202879
#	221500
#	235274
#	248357
#	262681
#
# Disc length: 3713 seconds
#
# Revision: 0
# Processed by: cddbd v1.5.2PL0 Copyright (c) Steve Scherf et al.
# Submitted via: EasyCDDAExtractor 15.3.0.1
#
DISCID=100e7f14
DTITLE=Shirley Bassey - Shirley Bassey Easy To Love
DYEAR=2010
DGENRE=Easy Listening
TTITLE0=Night and Day
TTITLE1=Crazy Rhythm
TTITLE2=The Wall
TTITLE3=Gypsy in My Soul
TTITLE4=Love for Sale
TTITLE5=From This Moment On
TTITLE6=My Funny Valentine
TTITLE7=How About You
TTITLE8=Foggy Day in London Town
TTITLE9=I've Got You Under My Skin
TTITLE10=Cry Me a River
TTITLE11=April in Paris
TTITLE12=I've Never Been in Love Before
TTITLE13=Man That Got Away
TTITLE14='S Wonderful
TTITLE15=I'll Remember April
TTITLE16=Easy to Love
TTITLE17=No One Ever Tells You
TTITLE18=They Can't Take That Away From Me
TTITLE19=Party's Over
EXTD=
EXTT0=
EXTT1=
EXTT2=
EXTT3=
EXTT4=
EXTT5=
EXTT6=
EXTT7=
EXTT8=
EXTT9=
EXTT10=
EXTT11=
EXTT12=
EXTT13=
EXTT14=
EXTT15=
EXTT16=
EXTT17=
EXTT18=
EXTT19=
PLAYORDER=
